<mxfile host="app.diagrams.net" modified="2024-01-31T10:43:38.984Z" agent="Mozilla/5.0 (X11; Linux x86_64) AppleWebKit/537.36 (KHTML, like Gecko) Chrome/121.0.0.0 Safari/537.36" etag="JiHUnA9JFgrMxVi4cUoz" version="23.0.2" type="device">
  <diagram name="Page-1" id="oJW4RRRlGO9KFvshEkQ7">
    <mxGraphModel dx="1050" dy="611" grid="1" gridSize="10" guides="1" tooltips="1" connect="1" arrows="1" fold="1" page="1" pageScale="1" pageWidth="827" pageHeight="1169" background="none" math="0" shadow="0">
      <root>
        <mxCell id="0" />
        <mxCell id="1" parent="0" />
        <mxCell id="fzTZWOh_sr2FfyW-UPfK-2" value="" style="shape=process;whiteSpace=wrap;html=1;backgroundOutline=1;size=0.5;" parent="1" vertex="1">
          <mxGeometry x="200" y="110" width="110" height="50" as="geometry" />
        </mxCell>
        <mxCell id="fzTZWOh_sr2FfyW-UPfK-10" value="" style="shape=process;whiteSpace=wrap;html=1;backgroundOutline=1;size=0.5;align=center;" parent="1" vertex="1">
          <mxGeometry x="310" y="110" width="110" height="50" as="geometry" />
        </mxCell>
        <mxCell id="fzTZWOh_sr2FfyW-UPfK-11" value="" style="shape=process;whiteSpace=wrap;html=1;backgroundOutline=1;size=0.5;" parent="1" vertex="1">
          <mxGeometry x="420" y="110" width="110" height="50" as="geometry" />
        </mxCell>
        <mxCell id="fzTZWOh_sr2FfyW-UPfK-12" value="" style="shape=singleArrow;direction=south;whiteSpace=wrap;html=1;arrowWidth=0.273333740234375;arrowSize=0.2585859202375316;" parent="1" vertex="1">
          <mxGeometry x="342.5" y="186" width="45" height="54" as="geometry" />
        </mxCell>
        <mxCell id="fzTZWOh_sr2FfyW-UPfK-13" value="&lt;font color=&quot;#ea6b66&quot; style=&quot;font-size: 14px;&quot;&gt;P2&lt;/font&gt;" style="text;html=1;strokeColor=none;fillColor=none;align=center;verticalAlign=middle;whiteSpace=wrap;rounded=0;" parent="1" vertex="1">
          <mxGeometry x="203" y="110" width="50" height="50" as="geometry" />
        </mxCell>
        <mxCell id="fzTZWOh_sr2FfyW-UPfK-14" value="&lt;font color=&quot;#009900&quot; style=&quot;font-size: 14px;&quot;&gt;P3&lt;/font&gt;" style="text;html=1;strokeColor=none;fillColor=none;align=center;verticalAlign=middle;whiteSpace=wrap;rounded=0;" parent="1" vertex="1">
          <mxGeometry x="258" y="110" width="50" height="50" as="geometry" />
        </mxCell>
        <mxCell id="fzTZWOh_sr2FfyW-UPfK-15" value="&lt;font color=&quot;#009900&quot; style=&quot;font-size: 14px;&quot;&gt;P1&lt;/font&gt;" style="text;html=1;strokeColor=none;fillColor=none;align=center;verticalAlign=middle;whiteSpace=wrap;rounded=0;" parent="1" vertex="1">
          <mxGeometry x="312" y="110" width="50" height="50" as="geometry" />
        </mxCell>
        <mxCell id="fzTZWOh_sr2FfyW-UPfK-16" value="&lt;font color=&quot;#009900&quot; style=&quot;font-size: 14px;&quot;&gt;P1&lt;/font&gt;" style="text;html=1;strokeColor=none;fillColor=none;align=center;verticalAlign=middle;whiteSpace=wrap;rounded=0;" parent="1" vertex="1">
          <mxGeometry x="368" y="110" width="50" height="50" as="geometry" />
        </mxCell>
        <mxCell id="fzTZWOh_sr2FfyW-UPfK-17" value="&lt;font color=&quot;#ea6b66&quot; style=&quot;font-size: 14px;&quot;&gt;P3&lt;/font&gt;" style="text;html=1;strokeColor=none;fillColor=none;align=center;verticalAlign=middle;whiteSpace=wrap;rounded=0;" parent="1" vertex="1">
          <mxGeometry x="423" y="110" width="50" height="50" as="geometry" />
        </mxCell>
        <mxCell id="fzTZWOh_sr2FfyW-UPfK-18" value="&lt;font style=&quot;font-size: 14px;&quot; color=&quot;#ea6b66&quot;&gt;P2&lt;/font&gt;" style="text;html=1;strokeColor=none;fillColor=none;align=center;verticalAlign=middle;whiteSpace=wrap;rounded=0;" parent="1" vertex="1">
          <mxGeometry x="478" y="110" width="50" height="50" as="geometry" />
        </mxCell>
        <mxCell id="fzTZWOh_sr2FfyW-UPfK-58" value="&lt;font style=&quot;font-size: 15px;&quot;&gt;RandomizeSubset&lt;/font&gt;" style="text;html=1;strokeColor=none;fillColor=none;align=center;verticalAlign=middle;whiteSpace=wrap;rounded=0;" parent="1" vertex="1">
          <mxGeometry x="395.5" y="197" width="132.5" height="32" as="geometry" />
        </mxCell>
        <mxCell id="U4vuDA3ogn_ZmVwreYOG-1" value="" style="shape=process;whiteSpace=wrap;html=1;backgroundOutline=1;size=0.5;" parent="1" vertex="1">
          <mxGeometry x="200" y="260" width="110" height="50" as="geometry" />
        </mxCell>
        <mxCell id="U4vuDA3ogn_ZmVwreYOG-2" value="" style="shape=process;whiteSpace=wrap;html=1;backgroundOutline=1;size=0.5;align=center;" parent="1" vertex="1">
          <mxGeometry x="310" y="260" width="110" height="50" as="geometry" />
        </mxCell>
        <mxCell id="U4vuDA3ogn_ZmVwreYOG-3" value="" style="shape=process;whiteSpace=wrap;html=1;backgroundOutline=1;size=0.5;" parent="1" vertex="1">
          <mxGeometry x="420" y="260" width="110" height="50" as="geometry" />
        </mxCell>
        <mxCell id="U4vuDA3ogn_ZmVwreYOG-4" value="&lt;font color=&quot;#ea6b66&quot; style=&quot;font-size: 14px;&quot;&gt;P2&lt;/font&gt;" style="text;html=1;strokeColor=none;fillColor=none;align=center;verticalAlign=middle;whiteSpace=wrap;rounded=0;" parent="1" vertex="1">
          <mxGeometry x="203" y="260" width="50" height="50" as="geometry" />
        </mxCell>
        <mxCell id="U4vuDA3ogn_ZmVwreYOG-5" value="&lt;font color=&quot;#009900&quot; style=&quot;font-size: 14px;&quot;&gt;P1&lt;/font&gt;" style="text;html=1;strokeColor=none;fillColor=none;align=center;verticalAlign=middle;whiteSpace=wrap;rounded=0;" parent="1" vertex="1">
          <mxGeometry x="258" y="260" width="50" height="50" as="geometry" />
        </mxCell>
        <mxCell id="U4vuDA3ogn_ZmVwreYOG-6" value="&lt;font color=&quot;#009900&quot; style=&quot;font-size: 14px;&quot;&gt;P3&lt;/font&gt;" style="text;html=1;strokeColor=none;fillColor=none;align=center;verticalAlign=middle;whiteSpace=wrap;rounded=0;" parent="1" vertex="1">
          <mxGeometry x="312" y="260" width="50" height="50" as="geometry" />
        </mxCell>
        <mxCell id="U4vuDA3ogn_ZmVwreYOG-7" value="&lt;font color=&quot;#009900&quot; style=&quot;font-size: 14px;&quot;&gt;P2&lt;/font&gt;" style="text;html=1;strokeColor=none;fillColor=none;align=center;verticalAlign=middle;whiteSpace=wrap;rounded=0;" parent="1" vertex="1">
          <mxGeometry x="368" y="260" width="50" height="50" as="geometry" />
        </mxCell>
        <mxCell id="U4vuDA3ogn_ZmVwreYOG-8" value="&lt;font color=&quot;#ea6b66&quot; style=&quot;font-size: 14px;&quot;&gt;P3&lt;/font&gt;" style="text;html=1;strokeColor=none;fillColor=none;align=center;verticalAlign=middle;whiteSpace=wrap;rounded=0;" parent="1" vertex="1">
          <mxGeometry x="423" y="260" width="50" height="50" as="geometry" />
        </mxCell>
        <mxCell id="U4vuDA3ogn_ZmVwreYOG-9" value="&lt;font style=&quot;font-size: 14px;&quot; color=&quot;#ea6b66&quot;&gt;P2&lt;/font&gt;" style="text;html=1;strokeColor=none;fillColor=none;align=center;verticalAlign=middle;whiteSpace=wrap;rounded=0;" parent="1" vertex="1">
          <mxGeometry x="478" y="260" width="50" height="50" as="geometry" />
        </mxCell>
      </root>
    </mxGraphModel>
  </diagram>
</mxfile>
